Patient4_TMGait_0pt3_02_left_03_EMG.mot
version=1
nRows=37
nColumns=33
inDegrees=no
endheader
time	1LAddLong	2LGlutMax	3LGlutMed	4LIliopsoas	5LSemiMemb	6LBicFemLong	7LRecFem	8LVastMed	9LVastLat	10LGasMed	11LTibAnt	12lTibPost	13LPeroneusLong	14LSol	15LExtDigLong	16LFlexDigLong	17RAddLong	18RGlutMax	19RGlutMed	20RIliopsoas	21RSemiMemb	22RBicFemLong	23RRecFem	24RVastMed	25RVastLat	26RGasMed	27RTibAnt	28RTibPost	29RPeroneusLong	30RSol	31RExtDigLong	32RFlexDigLong
6.615	-0.000305	-0.044098	-0.20844	0.015106	0.004425	0.22446	-0.037537	0.019684	0.021057	-0.047302	-0.029602	0.007019	-0.00473	0.2124	-0.18021	-0.00824	0.01297	-0.084991	0.15259	0.24612	0.27847	0.041199	-0.32715	-0.087433	0.40222	-0.008545	-0.045624	0.000458	0.06485	0.045776	0.003662	-0.014648
6.616	-0.014343	-0.082245	-0.24292	0.010376	-0.045319	-0.33005	-0.029297	0.006866	0.024109	0.01297	0.076904	0.010986	0.006256	0.13916	-0.27359	-0.00946	0.014954	-0.093689	0.15106	0.1236	0.26276	0.063934	-0.23499	-0.051117	0.42099	-0.009613	-0.013428	0.005951	0.054474	0.05722	-0.002441	-0.015869
6.617	-0.018311	-0.044708	-0.30518	0.01297	-0.077972	-0.31158	0.030518	-0.006714	0.032349	0.0914	0.19394	-0.004578	-0.011139	0.12421	-0.27802	-0.00824	0.015411	-0.06012	0.12283	0.058289	0.29282	0.042114	-0.086975	-0.044556	0.35065	-0.009918	0.051575	-0.001984	-0.0383	0.025177	-0.000916	-0.005341
6.618	-0.018005	0.001984	-0.27985	0.012054	-0.1564	-0.16113	0.049286	-0.005341	0.018005	0.14145	0.22629	-0.008545	0.04303	0.12009	-0.27069	-0.008545	-0.002136	-0.03006	0.11429	0.054474	0.18082	0.068359	0.050812	-0.045624	0.30045	-0.002747	0.19974	-0.000153	-0.10071	-0.021515	-0.002136	-0.021973
6.619	0.005035	0.017395	-0.26093	0.013733	-0.22201	-0.034637	0.040741	-0.006409	-0.00061	0.13809	0.1268	0.008392	0.059357	0.11932	-0.1593	-0.001984	0.006104	-0.026398	0.076599	0.070648	0.1741	0.05661	0.050964	-0.098572	0.18372	-0.001831	0.27023	-0.002747	-0.085144	0.008545	-0.000305	-0.009155
6.62	0.005493	-0.000153	-0.32806	0.007782	-0.16846	0.093994	-0.00351	-0.001373	-0.001831	0.082092	-0.060883	-0.000458	-0.029297	0.10086	-0.036774	0.000153	0.00824	-0.04715	0.005035	0.027161	0.20859	0.068054	-0.13641	-0.057373	0.17563	0.005188	0.34927	-0.002594	0.079956	0.006714	-0.002441	-0.014954
6.621	0.018616	-0.000458	-0.34515	0.001678	0.053406	0.082092	-0.061188	-0.002747	-0.018005	-0.092468	-0.13519	0.001526	-0.007172	0.017548	0.044556	0.003815	0.022278	-0.062866	0.054779	-0.030365	0.10407	0.080414	-0.15076	0.11795	0.31128	-0.000305	0.31281	-0.002441	-0.13107	-0.017548	-0.000916	-0.00885
6.622	0.031433	0.007629	-0.27329	-0.001221	0.20508	-0.073547	-0.040588	-0.007324	-0.021667	-0.14832	-0.12543	-0.015869	0.032043	-0.019989	0.06958	-0.001831	0.02594	-0.12253	0.1474	-0.046234	0.094299	0.066528	0.023651	0.2002	0.033875	-0.00412	-0.19501	-0.001221	0.011902	-0.040588	0.001373	-0.012817
6.623	0.020447	0.007477	-0.3273	0.011597	0.14572	0.1329	-0.010834	-0.003357	-0.037689	-0.28168	-0.088348	-0.004578	0.02594	0.035553	0.054321	0.004578	0.040588	-0.11719	0.04715	-0.032501	0.13687	0.052643	0.056152	0.17731	-0.091248	-0.00885	-0.34714	-0.007019	0.11826	-0.017853	0.010223	-0.005188
6.624	0.000763	0.028229	-0.33798	0.008087	0.089264	0.13092	0.002747	0.00351	-0.043335	-0.29587	-0.062866	-0.001678	0.012054	0.055084	0.02533	0.001221	0.059509	-0.065613	0.017395	-0.032959	0.14374	0.014343	-0.25635	0.10391	0.16419	-0.012054	0.062103	-0.001984	0.068054	0.003815	0.001678	-0.020752
6.625	0.00824	0.016174	-0.30762	0.005798	0.061493	-0.076141	0.002136	0.006104	-0.029755	-0.17654	-0.098419	-0.003662	-0.036469	0.037842	0.037537	0.010071	0.074615	-0.016327	0.034027	-0.024261	0.15091	-0.009308	-0.4007	0.069885	0.14679	-0.00473	0.31052	-0.002899	0.07019	-0.006866	0.00061	-0.026093
6.626	-0.005035	0.038605	-0.27313	0.002594	0.086365	-0.27542	-0.018311	0.003052	-0.016937	-0.071716	-0.070953	0.003204	0.15595	0.019379	0.11612	0.024261	0.074463	-0.001526	0.086365	-0.045624	0.1207	0.040894	-0.29846	0.077057	0.041962	-0.005341	0.21194	-0.001678	0.1358	-0.06073	0	-0.033569
6.627	0.008087	0.030365	-0.19821	-0.011139	0.078278	-0.39002	-0.054321	0.006104	-0.009155	0.013733	-0.072327	0.001984	-0.080261	-0.061493	0.076904	0.007172	0.049286	0.004425	0.35248	-0.056915	0.14282	0.077972	-0.1683	0.081635	-0.20493	-0.010071	-0.10132	-0.000305	0.1358	-0.10925	-0.001221	-0.026703
6.628	0.005951	0.012207	-0.2359	-0.003052	0.051422	-0.44373	-0.034027	-0.002899	0.011444	-0.037231	-0.001678	0.002289	-0.055542	-0.10605	0.035858	0.006104	0.016479	0.053406	0.31921	-0.054474	0.11154	0.096741	-0.057678	0.095062	-0.62943	-0.002136	-0.63034	-0.001068	0.14816	-0.13977	0	-0.019836
6.629	0.004272	0.002594	-0.2475	0.005798	-0.012512	-0.28702	-0.00351	-0.001678	0.036926	-0.072784	0.016022	-0.001678	0.022278	-0.092316	0.030823	-0.024414	-0.015717	0.087891	0.16937	-0.058594	0.003815	0.10788	0.018158	0.058746	-0.90088	-0.005035	-1.2607	0.003815	0.050201	-0.13672	0.000916	-0.017548
6.63	0.002594	0.00061	-0.23025	0.011902	-0.036163	-0.15717	0.036163	-0.005951	0.031891	-0.072021	0.02533	-0.001678	0.022583	-0.075684	0.11581	-0.014648	-0.026855	0.009766	0.091553	-0.053406	0.11337	0.072479	-0.015717	0.029602	-0.76157	0.003052	-0.10864	-0.001526	-0.050964	-0.1239	0.000458	-0.01709
6.631	-0.001984	0.049133	-0.21454	0.003357	0.005798	-0.00946	0.006409	-0.00412	-0.002899	-0.046539	0.000305	-0.001984	0.030823	-0.05249	0.049133	-0.002899	-0.002747	-0.027008	0.04776	-0.057068	0.14404	-0.008698	-0.058746	0.086517	-0.4335	-0.004272	0.41245	-0.005341	-0.12054	-0.14206	-0.003052	-0.017853
6.632	-0.007324	0.046997	-0.27161	0.010223	0.072784	0.087433	-0.016174	-0.006561	-0.016785	0.049286	0.002747	-0.006561	0.001678	-0.10254	-0.026245	0.004578	0.011444	0.018311	0.040283	-0.050354	0.14923	-0.037842	-0.10742	0.054779	-0.1976	0	0.31357	-0.004425	-0.12589	-0.14954	-0.003815	-0.018005
6.633	-0.000305	0.012512	-0.21896	-0.002594	0.050964	0.10544	0.001984	0.00351	-0.038757	0.18768	0.015564	-0.004425	-0.027618	-0.078125	-0.059357	0.00473	-0.009308	0.007629	0.13229	-0.18585	0.1506	-0.005646	-0.093384	-0.035248	-0.046997	0.003357	0.072632	-0.009766	-0.048981	-0.054169	0.001526	-0.017853
6.634	-0.002899	0.039673	-0.22507	0.004578	0.019836	0.092163	-0.024567	0.007477	-0.080566	0.20233	0.023193	0.001678	-0.042419	0.023956	-0.040894	0.005341	-0.083618	0.028381	0.063782	-0.32044	0.15472	0.053558	-0.19836	0.081482	0.014343	-0.002747	-0.21759	-0.005341	-0.10086	0.029755	-0.002441	0.000305
6.635	0.00946	-0.003967	-0.051575	0.005035	0.019073	0.15595	-0.098114	0.016174	-0.11551	-0.056	0.010376	0.00885	-0.007782	0.060883	-0.04776	0.004578	-0.085144	0.029755	0.14511	-0.29556	-0.000458	0.10391	-0.19989	0.10925	0.041046	-0.000763	-0.19226	-0.009766	-0.089569	0.027313	-0.001373	-0.013123
6.636	0.007782	-0.019989	-0.076141	-0.003967	0.009918	0.22446	-0.11643	0.005341	-0.103	-0.11414	0.007019	0.006104	-0.00885	0.14648	-0.032349	0.003967	-0.05127	-0.005951	0.21774	-0.26199	0.040588	0.040894	-0.13794	0.18387	0.039368	0.002899	0.072021	-0.006256	0.072021	-0.07019	-0.003357	-0.01297
6.637	0.003967	-0.010529	-0.053406	0.004272	-0.012054	0.099792	-0.097198	0.001984	0.000305	-0.07309	0.01236	-0.001678	0.004883	0.18295	-0.028534	-0.005035	-0.03418	-0.018158	0.23483	-0.16312	0.13412	0.005951	-0.13565	0.1207	0.057373	0.000153	0.13794	-0.003204	0.037079	-0.014343	-0.001831	-0.012665
6.638	-0.012054	0.014038	-0.076904	0.001526	-0.034027	-0.000153	-0.054321	0.004425	0.032806	-0.061646	0.006866	0.000305	0.002136	0.15518	-0.020905	0.000916	-0.020447	0.021515	0.2034	0.037994	0.14008	0.025635	-0.063171	-0.02121	0.050201	-0.000305	0.18799	-0.010376	0.054932	0.027008	-0.000916	-0.012817
6.639	-0.022583	0.003052	-0.1088	0.020447	-0.020447	-0.013885	-0.0737	0.000916	0.033569	-0.036011	0.014496	0.004578	-0.010223	0.076141	-0.010986	0.005951	-0.016937	0.079041	0.21042	0.2446	0.052032	0.040436	0.00824	0.053558	0.01236	-0.001068	0.074768	-0.00412	0.12589	0.13092	-0.00351	-0.01297
6.64	-0.005341	0.027771	-0.12756	0.009918	-0.061188	-0.30319	-0.12192	0.009613	0.014343	-0.035095	0.011292	-0.000763	0.07782	0.058289	0.013123	0.004883	-0.024109	0.045929	0.27176	0.43823	0.081482	0.045929	0.10056	0.15198	-0.012054	0.001068	-0.18021	-0.007782	0.023956	0.11597	-0.003204	-0.02182
6.641	-0.005493	0.022125	-0.14465	0.033112	-0.067444	-0.32044	-0.12405	-0.001984	-0.002747	-0.013885	0.011597	-0.001678	0.11353	0.1413	-0.010223	0.016174	-0.002594	0.00061	0.17563	0.47058	0.17883	-0.010834	0.17838	0.059052	-0.012665	-0.00473	-0.15778	-0.009308	0.00824	0.10223	-0.010071	-0.016174
6.642	0.003815	-0.010529	-0.066986	0.015259	0	-0.014648	-0.16403	0.003967	-0.057373	-0.007782	0.009003	0.003662	0.025177	0.11749	0.010071	0.009918	0.009766	-0.014954	0.19913	0.31738	0.15488	0.015717	0.26901	-0.048676	-0.081329	-0.007477	-0.037689	-0.000153	0.009003	0.11276	-0.003967	-0.013275
6.643	0.010681	0.020752	0.01236	0.004883	0.093079	0.15396	-0.20386	0.007935	-0.027466	-0.021515	0.003052	0.005798	0.027008	0.11353	-0.003052	0.001526	0.006866	-0.027008	0.17136	0.10407	0.10437	0.04837	0.12711	0.069275	-0.16922	-0.005188	0.000458	-0.007019	0.043793	0.16022	-0.002747	-0.019531
6.644	0.009918	0.04364	0.066376	-0.001678	0.032959	0.17899	-0.16892	-0.002136	0.033569	-0.0177	0.003204	-0.00061	-0.055847	0.13306	-0.00351	-0.012512	0.003204	-0.042572	0.17609	0.040131	-0.013275	0.075378	0.085602	0.18707	-0.10635	-0.00885	0.023193	-0.001678	0.019073	0.10681	-0.001221	-0.025635
6.645	-0.012512	0.062256	0.004425	0.005493	-0.023804	0.28503	-0.12222	0.001068	0.038147	-0.021515	0.003204	-0.003052	-0.103	0.14358	-0.011902	0.000458	0.012817	-0.092621	0.21545	0.02594	0.010986	0.074615	0.17319	0.17853	-0.057526	-0.007324	0.03067	-0.003204	-0.020142	0.025635	0	-0.022736
6.646	-0.006104	0.08667	0.12482	-0.007782	-0.065765	0.15396	-0.11658	-0.00412	0.009918	-0.03952	0.003204	-0.005035	-0.08667	0.13443	-0.007782	0.007782	0.024872	-0.057983	0.19073	0.017395	0.085297	0.060577	0.14816	0.061493	0.088348	0.008545	0.042877	-0.001984	-0.036926	-0.020599	-0.004272	-0.02594
6.647	0.009155	0.043793	0.13123	0.006104	-0.057831	-0.18326	-0.1329	-0.002899	0.039978	-0.014954	0.021362	0.002594	0.051727	0.086975	0.005798	0.009766	0.029602	0.022125	0.24017	0.071259	-0.015106	0.058899	0.21683	-0.11643	0.12634	-0.003815	0.030518	-0.009766	-0.02121	-0.000153	0.001221	-0.019379
6.648	0.020294	0.02655	0.043793	-0.00412	0.054474	-0.37445	-0.121	-0.003967	0.004272	-0.005341	0.009003	0.022736	0.12207	0.04837	0.002136	0.000458	0.03418	0.01297	0.20233	0.1297	-0.055237	0.003052	0.25223	-0.17227	0.041809	-0.004425	0.03479	0.001984	-0.014343	0.015717	-0.007172	-0.011597
6.649	0.018921	-0.011139	0.037689	-0.001526	0.11612	-0.08194	-0.095062	0.009918	-0.006714	0.000153	0.012512	-0.005646	0.001526	-0.093689	-0.006714	0.001068	0.020447	-0.017853	0.080566	0.040588	-0.020599	0.009766	0.058136	-0.16205	-0.016785	-0.00824	0.039673	-0.001068	-0.010223	-0.018921	0.005493	-0.015259
6.65	0.011139	0.014801	0.075226	-0.003662	0.1033	0.10513	-0.11475	-0.003052	-0.018616	-0.018005	0.00885	-0.017548	-0.046082	-0.20737	-0.001373	-0.002747	0.034943	-0.046692	-0.17777	0.020447	0.05722	0.029297	-0.057831	-0.23422	0.022278	-0.003815	0.043182	0.00061	-0.019226	0.001831	0.000153	-0.004578
6.651	0.011139	0.061798	0.14099	0.014801	0.050812	0.080872	-0.12451	-0.006866	-0.016174	-0.010071	0.007782	-0.000916	-0.056152	-0.18372	0.010681	-0.002136	0.03479	-0.04303	-0.097961	-0.014496	0.48843	0	0.033875	-0.033875	0.089111	-0.003815	0.092468	-0.003815	-0.035553	-0.026703	0.001068	-0.006866
